# xmcd
#
# Track frame offsets:
# 150
# 13565
# 27098
# 40461
# 55646
# 67645
# 82175
# 96153
# 110084
# 122820
# 138011
# 152235
# 164239
# 178042
# 192424
# 204980
# 218260
# 232482
# 244664
# 258219
# 270033
# 285793
# 299308
# 314186
#
# Disc length: 4358 seconds
#
#
# Revision: 2
# Processed by: cddbd v1.5.2PL0 Copyright (c) Steve Scherf et al.
# Submitted via: FreeRIP 2.951 
#
DISCID=55110418
DTITLE=Various Artist - Best of the Bluues Legends
DYEAR=1998
DGENRE=Blues
TTITLE0=Good Morning Little Schoolgirl
TTITLE1=Terraplane Blues
TTITLE2=Reckless Blues
TTITLE3=32 - 20 Blues
TTITLE4=Cross Road Blues
TTITLE5=Break 'Em On Down
TTITLE6=Midnight Special
TTITLE7=Roll and Tumbles Blues
TTITLE8=Pinetops Boogie Woogie
TTITLE9=Careless Love Blues
TTITLE10=When the Levee Breaks
TTITLE11=Baby Please Don't Go
TTITLE12=I Bes Troubled
TTITLE13=Sleep Talking Blues
TTITLE14=Sweet Sixteen
TTITLE15=I Believe I'll Dust My Broom
TTITLE16=My Black Mamma
TTITLE17=Trouble in Mind
TTITLE18=I'm Woke Up Now
TTITLE19=Hellbound on my Trail
TTITLE20=My Daddy Rocks Me
TTITLE21=Scary Day Blues
TTITLE22=Broken Hearted and Dirty too
TTITLE23=Got the Blues Can't be Satisfied
EXTD=
EXTT0=Sonny Boy Wiliamson
EXTT1=Robert Johnson
EXTT2=Bessie Smith
EXTT3=Muddy Waters
EXTT4=Robert Johnson
EXTT5=Big Joe Williams
EXTT6=Leadbelly
EXTT7=Hamburn Willie Newburn
EXTT8=Cripple Clarence Lofton
EXTT9=Bessie Smith
EXTT10=Memphis Minnie
EXTT11=Big Joe Williams
EXTT12=Muddy Waters
EXTT13=Ma Rainy
EXTT14=Walter Davis
EXTT15=Robert Johhnson
EXTT16=Sea House
EXTT17=Chippie Hill
EXTT18=Big Bill Broonzy
EXTT19=Robert Johnson
EXTT20=Tampa Red
EXTT21=Blind Willie McTell
EXTT22=Sleepy John Estees
EXTT23=Mississippi John Hurt
PLAYORDER=
